<?xml version="1.0" encoding="UTF-8"?>
<svg width="26px" height="12px" viewBox="0 0 26 12" version="1.1" xmlns="http://www.w3.org/2000/svg" xmlns:xlink="http://www.w3.org/1999/xlink">
    <title>mobile_svip_tag</title>
    <defs>
        <linearGradient x1="94.7222929%" y1="40.6706064%" x2="2.65712251%" y2="60.6508876%" id="linearGradient-1">
            <stop stop-color="#605D5D" offset="0%"></stop>
            <stop stop-color="#3C3C3B" offset="100%"></stop>
        </linearGradient>
        <linearGradient x1="-18.487626%" y1="43.1989187%" x2="100%" y2="56.1732312%" id="linearGradient-2">
            <stop stop-color="#FBE2BE" offset="0%"></stop>
            <stop stop-color="#E7BB78" offset="100%"></stop>
        </linearGradient>
    </defs>
    <g id="设计稿" stroke="none" stroke-width="1" fill="none" fill-rule="evenodd">
        <g id="按钮梳理" transform="translate(-113.000000, -172.000000)" fill-rule="nonzero">
            <g id="mobile_svip_tag" transform="translate(113.000000, 172.000000)">
                <rect id="Mask" fill="url(#linearGradient-1)" x="0" y="0" width="26" height="12" rx="1.71428571"></rect>
                <path d="M6.75335804,2.57350644 C7.03098861,2.5635497 7.34911417,2.58937607 7.7077347,2.65098553 C8.06635524,2.71259499 8.36546435,2.8011623 8.60506204,2.91668748 L8.60506204,2.91668748 L8.088859,3.99640848 L7.99674977,3.96066638 C7.83785889,3.90344383 7.65209059,3.85795932 7.43944485,3.82421284 C7.18426997,3.78371707 6.9510622,3.76725707 6.73982155,3.77483285 C6.4259783,3.78608828 6.17589524,3.85091014 5.98957237,3.96929842 C5.80324951,4.0876867 5.69545932,4.24980276 5.6662018,4.45564661 C5.62740253,4.73630341 5.74913657,4.93983516 6.03140392,5.06624186 L6.03140392,5.06624186 L7.00811178,5.53389155 L7.12687272,5.59311872 C7.28636335,5.67726025 7.45042483,5.78208966 7.61905716,5.90760696 C7.82984757,6.06450359 7.98633813,6.26834033 8.08852882,6.51911719 C8.19071951,6.76989405 8.22013517,7.0574133 8.17677579,7.38167491 C8.08942475,8.01160314 7.80096876,8.50290508 7.31140781,8.85558073 C6.82184686,9.20825637 6.19381549,9.39833882 5.4273137,9.42582806 C5.02293873,9.44033026 4.6211408,9.3973355 4.2219199,9.29684377 C3.82269901,9.19635204 3.49620045,9.05756835 3.24242424,8.8804927 L3.24242424,8.8804927 L3.76768045,7.80044703 L3.88754392,7.86283006 C4.40618849,8.12248191 4.91490407,8.24336378 5.41369067,8.22547568 C5.76374661,8.21292154 6.04233997,8.14242278 6.24947076,8.01397942 C6.45660154,7.88553606 6.57739189,7.70588756 6.61184181,7.4750339 C6.65604424,7.17556564 6.5185893,6.95398 6.19947698,6.81027699 L6.19947698,6.81027699 L5.2234014,6.36122231 L5.11392438,6.30918052 C4.83017153,6.16980238 4.6119057,6.02562395 4.4591269,5.87664523 C4.28725076,5.70904416 4.1706229,5.5223955 4.10924333,5.31669925 C4.04786376,5.11100299 4.03366127,4.87103385 4.06663585,4.59679184 C4.10108577,4.36593818 4.17320455,4.13218213 4.28299218,3.89552368 C4.3927798,3.65886522 4.56948426,3.43532165 4.81310554,3.22489297 C5.05672682,3.01446429 5.35198471,2.85648534 5.69887921,2.75095614 C6.04577371,2.64542693 6.39726665,2.58627703 6.75335804,2.57350644 Z M11.0468053,2.60520137 L11.1984621,7.77670681 L11.2762786,7.77670681 L13.3528987,2.60520137 L14.8495874,2.60520137 L11.9328904,9.40582146 L9.87615044,9.40582146 L9.52398839,2.60520137 L11.0468053,2.60520137 Z M17.2153212,2.60520137 L15.9333377,9.40582146 L14.444601,9.40582146 L15.7265845,2.60520137 L17.2153212,2.60520137 Z M21.1971634,2.60520137 C21.7219985,2.60520137 22.1093767,2.69389243 22.3445301,2.86310563 C22.5772785,3.04108931 22.7235454,3.31393343 22.7455404,3.61114466 C22.7796206,3.93148275 22.7404284,4.36968658 22.6393238,4.90183292 C22.5420059,5.41841942 22.4202639,5.83678446 22.2740977,6.15692806 C22.1252994,6.4800341 21.8854665,6.74978469 21.5856777,6.93122431 C21.2755479,7.11852582 20.8523854,7.21596928 20.3190303,7.21596928 L19.1375834,7.21596928 L18.726349,9.39706906 L17.2495404,9.39706906 L18.5303879,2.60520137 L21.1971634,2.60520137 Z M20.438311,3.87780132 L19.7669311,3.87780132 L19.3778488,5.94336933 L20.0486607,5.94336933 C20.3326624,5.94336933 20.5354396,5.91652861 20.6643763,5.87218309 C20.7922848,5.82115985 20.8968833,5.72266303 20.957466,5.59619053 C21.0447736,5.37546363 21.1082027,5.1455484 21.1466111,4.91058533 C21.2073875,4.59024724 21.2335156,4.3586002 21.2159075,4.22498013 C21.2103253,4.10307607 21.1365969,3.9954947 21.0267624,3.94898756 C20.9131618,3.90464204 20.7223127,3.87780132 20.438311,3.87780132 Z" id="形状结合" fill="url(#linearGradient-2)"></path>
            </g>
        </g>
    </g>
</svg>